<svg width="194" height="49" viewBox="0 0 194 49" fill="none" xmlns="http://www.w3.org/2000/svg">
<path d="M76.6984 23.457H67.8145V27.0005H72.5475C71.9148 28.6963 70.3708 29.734 68.017 29.734C64.5748 29.734 62.4487 27.532 62.4487 24.5201C62.4487 21.4069 64.676 19.2049 67.6626 19.2049C69.6622 19.2049 71.2567 20.1161 71.9907 21.2804L75.4329 19.3062C73.9396 16.927 71.0795 15.2565 67.688 15.2565C62.4741 15.2565 58.3991 19.3568 58.3991 24.4948C58.3991 29.5821 62.3981 33.6824 67.9664 33.6824C72.9272 33.6824 76.6984 30.392 76.6984 24.9757V23.457ZM88.2956 33.328H92.649L88.8778 26.8233C90.8266 25.8362 92.1428 23.862 92.1428 21.6853C92.1428 18.3191 89.4346 15.6109 86.0683 15.6109H78.9815V33.328H83.0311V27.5067H84.9547L88.2956 33.328ZM83.0311 19.4074H86.0683C87.182 19.4074 88.0931 20.3945 88.0931 21.6853C88.0931 22.9762 87.182 23.9633 86.0683 23.9633H83.0311V19.4074ZM101.137 33.6824C105.035 33.6824 107.971 31.4045 107.971 27.6079V15.6109H103.921V27.2536C103.921 28.595 103.288 29.734 101.137 29.734C98.9854 29.734 98.3527 28.595 98.3527 27.2536V15.6109H94.303V27.6079C94.303 31.4045 97.239 33.6824 101.137 33.6824ZM128.608 15.6109H124.559L119.75 23.4824L114.941 15.6109H110.891V33.328H114.941V23.0268L119.522 30.5439H119.977L124.559 23.0268V33.328H128.608V15.6109ZM131.653 15.6109V33.328H135.703V15.6109H131.653ZM148.618 15.6109V25.2288L141.784 15.6109H138.747V33.328H142.797V23.7101L149.631 33.328H152.668V15.6109H148.618ZM173.243 23.457H164.359V27.0005H169.092C168.459 28.6963 166.915 29.734 164.562 29.734C161.119 29.734 158.993 27.532 158.993 24.5201C158.993 21.4069 161.221 19.2049 164.207 19.2049C166.207 19.2049 167.801 20.1161 168.535 21.2804L171.978 19.3062C170.484 16.927 167.624 15.2565 164.233 15.2565C159.019 15.2565 154.944 19.3568 154.944 24.4948C154.944 29.5821 158.943 33.6824 164.511 33.6824C169.472 33.6824 173.243 30.392 173.243 24.9757V23.457ZM181.084 33.6824C184.932 33.6824 187.665 31.6576 187.665 28.2407C187.665 24.4948 184.653 23.5583 181.97 22.7484C179.212 21.9131 178.781 21.3563 178.781 20.5464C178.781 19.8377 179.414 19.2049 180.68 19.2049C182.299 19.2049 183.135 19.9895 183.742 21.2551L187.159 19.2555C185.868 16.6486 183.59 15.2565 180.68 15.2565C177.617 15.2565 174.732 17.2307 174.732 20.6476C174.732 24.0392 177.313 25.3047 179.946 26.0387C182.603 26.7727 183.616 27.203 183.616 28.2913C183.616 28.9747 183.135 29.734 181.211 29.734C179.212 29.734 178.123 28.7469 177.49 27.2789L173.998 29.3037C174.985 31.9107 177.364 33.6824 181.084 33.6824Z" fill="#FB8A2E"/>
<path fill-rule="evenodd" clip-rule="evenodd" d="M49.9977 23.7875C49.9977 35.0237 40.889 44.1324 29.6529 44.1324C29.6101 44.1324 29.5677 44.1326 29.525 44.1324H14.1626C6.48642 44.1324 0.263672 37.9096 0.263672 30.2335V7.48706C0.263672 6.91748 0.935354 6.61392 1.36287 6.99029L6.21749 11.2642C7.17478 12.107 8.62108 12.065 9.52779 11.168L13.6018 7.13778C14.0198 6.7243 14.7291 7.02037 14.7291 7.6083V15.1471L15.0343 9.63802C18.7328 5.81763 23.9155 3.44272 29.6529 3.44272C40.889 3.44272 49.9977 12.5514 49.9977 23.7875ZM5.09484 19.8899C5.98874 19.8899 6.71339 19.1653 6.71339 18.2714C6.71339 17.7532 6.46989 17.2919 6.09107 16.9956C5.96028 16.8934 5.81336 16.8108 5.65476 16.7523C5.48028 16.6879 5.29166 16.6528 5.09484 16.6528C4.20094 16.6528 3.47629 17.3775 3.47629 18.2714C3.47629 19.1653 4.20094 19.8899 5.09484 19.8899ZM12.6971 18.2714C12.6971 19.1653 11.9725 19.8899 11.0786 19.8899C10.1847 19.8899 9.46002 19.1653 9.46002 18.2714C9.46002 17.3775 10.1847 16.6528 11.0786 16.6528C11.9725 16.6528 12.6971 17.3775 12.6971 18.2714ZM5.5623 27.4311H14.8889C15.8379 27.4311 16.7588 27.1091 17.501 26.5177L22.3239 22.675C22.7761 22.3147 23.3373 22.1184 23.9155 22.1184H42.8333C43.7629 22.1184 44.5165 22.872 44.5165 23.8016V25.4848V26.9394C44.5165 33.7689 38.9801 39.3053 32.1507 39.3053V31.5194C32.1507 28.7598 29.9135 26.5226 27.1539 26.5226V37.3642H12.1195C8.4642 37.3642 5.50099 34.401 5.50099 30.7457V30.1425H6.76746V30.0255H5.50099C5.14908 30.0255 4.8638 29.7402 4.8638 29.3883V28.1296C4.8638 27.7438 5.17653 27.4311 5.5623 27.4311Z" fill="#FB8A2E"/>
<path d="M29.8181 39.3067V31.3888C29.8181 29.9198 28.6272 28.7289 27.1582 28.7289V26.5244C29.9147 26.5244 32.1494 28.759 32.1494 31.5156V39.3067H29.8181Z" fill="#BA5C12"/>
<path d="M12.9648 15.1304H14.7283V7.5986C14.7283 7.01315 14.0214 6.71893 13.606 7.13149L12.9648 7.7683V15.1304Z" fill="#BA5C12"/>
<circle cx="23.3552" cy="28.3109" r="1.77703" fill="#FB8A2E"/>
</svg>
