<svg width="36" height="36" viewBox="0 0 36 36" fill="none" xmlns="http://www.w3.org/2000/svg">
<path d="M12.6258 27.6955L7.40397 30.5437C7.09754 30.7108 6.82215 30.9162 6.56592 31.14C9.61037 33.7069 13.5404 35.2555 17.8344 35.2555C22.0966 35.2555 26.0016 33.73 29.0374 31.1982C28.7574 30.9617 28.4536 30.7491 28.1168 30.5814L22.5252 27.786C21.8027 27.4248 21.3464 26.6865 21.3464 25.8788V23.685C21.5036 23.5061 21.6832 23.2763 21.8754 23.0049C22.6375 21.9284 23.214 20.7444 23.6136 19.5022C24.3308 19.281 24.8591 18.6186 24.8591 17.8315V15.4898C24.8591 14.9747 24.6299 14.5144 24.274 14.1921V10.807C24.274 10.807 24.9694 5.53918 17.835 5.53918C10.7007 5.53918 11.3961 10.807 11.3961 10.807V14.1921C11.0395 14.5144 10.811 14.9747 10.811 15.4898V17.8315C10.811 18.4482 11.1352 18.9911 11.6206 19.3048C12.2058 21.8518 13.7379 23.685 13.7379 23.685V25.8247C13.7372 26.6039 13.3106 27.3217 12.6258 27.6955Z" fill="#E7ECED"/>
<path d="M18.1335 0.258099C8.46987 0.0930047 0.501449 7.79301 0.336348 17.4563C0.242571 22.9355 2.68474 27.8599 6.57319 31.1347C6.82745 30.9128 7.10019 30.7094 7.40332 30.5443L12.6251 27.6961C13.31 27.3224 13.7366 26.6045 13.7366 25.824V23.6843C13.7366 23.6843 12.2038 21.8511 11.6193 19.3041C11.1346 18.9904 10.8097 18.4482 10.8097 17.8307V15.4891C10.8097 14.974 11.0388 14.5137 11.3948 14.1914V10.8063C11.3948 10.8063 10.6994 5.53848 17.8337 5.53848C24.9681 5.53848 24.2726 10.8063 24.2726 10.8063V14.1914C24.6293 14.5137 24.8578 14.974 24.8578 15.4891V17.8307C24.8578 18.6179 24.3294 19.2803 23.6122 19.5015C23.2127 20.7437 22.6362 21.9277 21.8741 23.0041C21.6819 23.2756 21.5023 23.5054 21.3451 23.6843V25.8781C21.3451 26.6858 21.8014 27.4247 22.5239 27.7853L28.1155 30.5807C28.451 30.7484 28.7541 30.9604 29.0335 31.1961C32.8044 28.0514 35.2406 23.3495 35.3311 18.0546C35.4975 8.39131 27.7979 0.423194 18.1335 0.258099Z" fill="#FB8A2E"/>
</svg>
